<?xml version="1.0" encoding="UTF-8" standalone="no"?>
<!-- Created with Inkscape (http://www.inkscape.org/) -->

<svg
   width="64.175835mm"
   height="64.165489mm"
   viewBox="0 0 64.175835 64.165489"
   version="1.1"
   id="svg5"
   xmlns:xlink="http://www.w3.org/1999/xlink"
   xmlns="http://www.w3.org/2000/svg"
   xmlns:svg="http://www.w3.org/2000/svg">
  <defs
     id="defs2">
    <linearGradient
       id="linearGradient9436">
      <stop
         style="stop-color:#1a1a1a;stop-opacity:1;"
         offset="0"
         id="stop9432" />
      <stop
         style="stop-color:#0d0d0d;stop-opacity:1;"
         offset="1"
         id="stop9434" />
    </linearGradient>
    <linearGradient
       id="linearGradient1009">
      <stop
         style="stop-color:#1a1a1a;stop-opacity:1;"
         offset="0"
         id="stop1005" />
      <stop
         style="stop-color:#141414;stop-opacity:1;"
         offset="0.5"
         id="stop1013" />
    </linearGradient>
    <linearGradient
       id="linearGradient2490">
      <stop
         style="stop-color:#00ff00;stop-opacity:1;"
         offset="0"
         id="stop2486" />
      <stop
         style="stop-color:#000000;stop-opacity:0;"
         offset="1"
         id="stop2488" />
    </linearGradient>
    <linearGradient
       xlink:href="#linearGradient2490"
       id="linearGradient2492"
       x1="127.04996"
       y1="126.44648"
       x2="98.857437"
       y2="154.63899"
       gradientUnits="userSpaceOnUse"
       gradientTransform="matrix(1.4547677,0,0,1.4547677,-47.750598,-67.53301)" />
    <filter
       style="color-interpolation-filters:sRGB"
       id="filter1506"
       x="-0.14326533"
       y="-0.09065568"
       width="1.2865307"
       height="1.1805674">
      <feGaussianBlur
         stdDeviation="2.2190075"
         id="feGaussianBlur1508" />
    </filter>
    <linearGradient
       xlink:href="#linearGradient1009"
       id="linearGradient1011"
       x1="137.07758"
       y1="116.41725"
       x2="73.461388"
       y2="180.54111"
       gradientUnits="userSpaceOnUse"
       gradientTransform="translate(6.4183709e-6)" />
    <filter
       style="color-interpolation-filters:sRGB"
       id="filter7419"
       x="-0.10518445"
       y="-0.056329954"
       width="1.1625578"
       height="1.1596015">
      <feFlood
         flood-opacity="0.784314"
         flood-color="rgb(0,0,0)"
         result="flood"
         id="feFlood7409" />
      <feComposite
         in="flood"
         in2="SourceGraphic"
         operator="out"
         result="composite1"
         id="feComposite7411" />
      <feGaussianBlur
         in="composite1"
         stdDeviation="0.5"
         result="blur"
         id="feGaussianBlur7413" />
      <feOffset
         dx="-1"
         dy="1"
         result="offset"
         id="feOffset7415" />
      <feComposite
         in="offset"
         in2="SourceGraphic"
         operator="atop"
         result="fbSourceGraphic"
         id="feComposite7417" />
      <feColorMatrix
         result="fbSourceGraphicAlpha"
         in="fbSourceGraphic"
         values="0 0 0 -1 0 0 0 0 -1 0 0 0 0 -1 0 0 0 0 1 0"
         id="feColorMatrix7421" />
      <feFlood
         id="feFlood7423"
         flood-opacity="0.784314"
         flood-color="rgb(0,0,0)"
         result="flood"
         in="fbSourceGraphic" />
      <feComposite
         in2="fbSourceGraphic"
         id="feComposite7425"
         in="flood"
         operator="out"
         result="composite1" />
      <feGaussianBlur
         id="feGaussianBlur7427"
         in="composite1"
         stdDeviation="0.5"
         result="blur" />
      <feOffset
         id="feOffset7429"
         dx="-1"
         dy="1"
         result="offset" />
      <feComposite
         in2="fbSourceGraphic"
         id="feComposite7431"
         in="offset"
         operator="atop"
         result="composite2" />
    </filter>
    <linearGradient
       xlink:href="#linearGradient9436"
       id="linearGradient9438"
       x1="-43.602753"
       y1="101.14938"
       x2="-92.234039"
       y2="150.55548"
       gradientUnits="userSpaceOnUse" />
  </defs>
  <g
     id="layer1"
     transform="translate(-72.912081,-116.41726)">
    <path
       id="rect788"
       d="m 86.883832,116.91726 h 36.232348 c 7.44024,1e-5 13.47174,6.03152 13.47174,13.47176 v 36.22197 c 0,7.44023 -6.0315,13.47175 -13.47174,13.47175 H 86.883832 c -7.44024,0 -13.47175,-6.03151 -13.47175,-13.47175 v -36.22197 c 0,-7.44025 6.03151,-13.47176 13.47175,-13.47176 z"
       style="fill:url(#linearGradient1011);fill-opacity:1;stroke:url(#linearGradient2492);stroke-width:1;stroke-dasharray:none;stroke-opacity:0.3" />
    <ellipse
       style="opacity:1;fill:url(#linearGradient9438);fill-opacity:1;stroke:none;stroke-width:1.6738;stroke-dasharray:none;stroke-opacity:0.3;filter:url(#filter7419)"
       id="path6828"
       cx="-66.918396"
       cy="124.85243"
       rx="20.91564"
       ry="21.303053"
       transform="matrix(1.1967686,0,0,1.1793002,186.2826,0.08220368)" />
    <g
       id="g1308"
       transform="matrix(0.58831575,0,0,0.58831575,35.887034,89.973744)"
       style="stroke:#333333">
      <path
         d="M 119.09696,70.456328 A 5.7358256,5.7358256 0 1 0 108.2363,73.032461 4.6011297,4.6011297 0 0 0 105.99185,72.4514 c -2.74322,0 -4.98767,2.45642 -4.98767,5.486438 a 5.7582702,5.7582702 0 0 0 1.44892,3.865448 4.7682167,4.7682167 0 0 0 -1.06235,-0.12468 c -3.167178,0 -5.735833,3.127278 -5.735833,6.982742 0,3.855482 2.568655,6.98276 5.735833,6.98276 a 4.7682167,4.7682167 0 0 0 1.07483,-0.124707 5.7582702,5.7582702 0 0 0 -1.44892,3.865456 c 0,3.030013 2.24445,5.486423 4.98767,5.486423 a 4.6011297,4.6011297 0 0 0 2.24445,-0.58102 5.7358256,5.7358256 0 1 0 10.84819,2.57613 c 0,-0.0855 0,-0.16713 0,-0.24932 v 0 -35.911272 0 c 0,-0.08237 0,-0.164598 0,-0.249388 z"
         fill="none"
         stroke="#220728"
         stroke-linejoin="bevel"
         stroke-width="0.161449"
         id="path1280"
         style="fill:none;fill-opacity:1;stroke:#333333;stroke-width:1.85357;stroke-dasharray:none" />
      <path
         d="m 109.43584,110.92133 a 5.7363702,5.7363702 0 0 0 8.11243,-8.11246 h -3.21453"
         fill="none"
         stroke="#220728"
         stroke-miterlimit="10"
         stroke-width="0.161449"
         id="path1282"
         style="fill:none;fill-opacity:1;stroke:#333333;stroke-width:1.85357;stroke-dasharray:none" />
      <path
         style="fill:none;fill-opacity:1;stroke:#333333;stroke-width:1.85357;stroke-dasharray:none"
         d="m 109.18646,66.401351 a 5.7358256,5.7358256 0 0 1 8.11244,8.109962 h -2.77315"
         id="path1284" />
      <path
         id="path1286"
         style="fill:none;fill-opacity:1;stroke:#333333;stroke-width:1.85357;stroke-miterlimit:10;stroke-dasharray:none"
         d="m 119.09696,87.414429 h -6.2346 l -7.91792,7.42165" />
      <path
         id="path1288"
         style="fill:none;fill-opacity:1;stroke:#333333;stroke-width:1.85357;stroke-miterlimit:10;stroke-dasharray:none"
         d="m 103.87706,85.332074 4.35923,6.182232" />
      <path
         id="path1290"
         style="fill:none;fill-opacity:1;stroke:#333333;stroke-width:1.85357;stroke-miterlimit:10;stroke-dasharray:none"
         d="m 108.23629,104.29022 3.00509,-4.15723" />
      <path
         id="path1292"
         style="fill:none;fill-opacity:1;stroke:#333333;stroke-width:1.85357;stroke-miterlimit:10;stroke-dasharray:none"
         d="m 108.2363,73.072367 2.13223,3.369174 v 4.987675" />
      <path
         id="path1294"
         style="fill:none;fill-opacity:1;stroke:#333333;stroke-width:1.85357;stroke-miterlimit:10;stroke-dasharray:none"
         d="M 130.5686,88.661339 H 118.5982" />
      <path
         id="path1296"
         style="fill:none;fill-opacity:1;stroke:#333333;stroke-width:1.85357;stroke-miterlimit:10;stroke-dasharray:none"
         d="m 119.34635,96.392235 h 5.9852 l 2.99261,5.404145" />
      <path
         id="path1298"
         style="fill:none;fill-opacity:1;stroke:#333333;stroke-width:1.85357;stroke-miterlimit:10;stroke-dasharray:none"
         d="m 119.34635,81.179832 h 5.9852 l 2.99261,-5.404146" />
      <path
         id="path1300"
         style="fill:none;fill-opacity:1;stroke:#333333;stroke-width:1.85357;stroke-miterlimit:10;stroke-dasharray:none;stroke-opacity:1"
         d="m 139.29704,88.661339 a 3.9901392,3.9901392 0 0 1 -3.99014,3.990137 3.9901392,3.9901392 0 0 1 -3.99013,-3.990137 3.9901392,3.9901392 0 0 1 3.99013,-3.990141 3.9901392,3.9901392 0 0 1 3.99014,3.990141 z" />
      <path
         id="path1302"
         style="fill:none;fill-opacity:1;stroke:#333333;stroke-width:1.85357;stroke-miterlimit:10;stroke-dasharray:none;stroke-opacity:1"
         d="m 133.8106,106.11819 a 3.9901392,3.9901392 0 0 1 -3.99015,3.99015 3.9901392,3.9901392 0 0 1 -3.99013,-3.99015 3.9901392,3.9901392 0 0 1 3.99013,-3.99013 3.9901392,3.9901392 0 0 1 3.99015,3.99013 z" />
      <path
         id="path1304"
         style="fill:none;fill-opacity:1;stroke:#333333;stroke-width:1.85357;stroke-miterlimit:10;stroke-dasharray:none;stroke-opacity:1"
         d="m 133.8106,71.204468 a 3.9901392,3.9901392 0 0 1 -3.99015,3.990139 3.9901392,3.9901392 0 0 1 -3.99013,-3.990139 3.9901392,3.9901392 0 0 1 3.99013,-3.990139 3.9901392,3.9901392 0 0 1 3.99015,3.990139 z" />
      <path
         style="fill:none;fill-opacity:1;stroke:#333333;stroke-width:1.85357;stroke-dasharray:none"
         d="m 113.98206,112.57426 c 0,0 7.53337,4.97826 0,19.33076 -1.93223,3.68129 7.84179,2.59148 10.28953,0.18812 2.83664,-2.78524 0,-11.92628 0,-11.92628"
         id="path1306" />
    </g>
    <g
       id="g665"
       transform="matrix(0.58831575,0,0,0.58831575,35.887034,89.973744)"
       style="stroke:#00ff00">
      <path
         d="M 119.09696,70.456328 A 5.7358256,5.7358256 0 1 0 108.2363,73.032461 4.6011297,4.6011297 0 0 0 105.99185,72.4514 c -2.74322,0 -4.98767,2.45642 -4.98767,5.486438 a 5.7582702,5.7582702 0 0 0 1.44892,3.865448 4.7682167,4.7682167 0 0 0 -1.06235,-0.12468 c -3.167178,0 -5.735833,3.127278 -5.735833,6.982742 0,3.855482 2.568655,6.98276 5.735833,6.98276 a 4.7682167,4.7682167 0 0 0 1.07483,-0.124707 5.7582702,5.7582702 0 0 0 -1.44892,3.865456 c 0,3.030013 2.24445,5.486423 4.98767,5.486423 a 4.6011297,4.6011297 0 0 0 2.24445,-0.58102 5.7358256,5.7358256 0 1 0 10.84819,2.57613 c 0,-0.0855 0,-0.16713 0,-0.24932 v 0 -35.911272 0 c 0,-0.08237 0,-0.164598 0,-0.249388 z"
         fill="none"
         stroke="#220728"
         stroke-linejoin="bevel"
         stroke-width="0.161449"
         id="path5091"
         style="fill:none;fill-opacity:1;stroke:#00ff00;stroke-width:1.85357;stroke-dasharray:none" />
      <path
         d="m 109.43584,110.92133 a 5.7363702,5.7363702 0 0 0 8.11243,-8.11246 h -3.21453"
         fill="none"
         stroke="#220728"
         stroke-miterlimit="10"
         stroke-width="0.161449"
         id="path5093"
         style="fill:none;fill-opacity:1;stroke:#00ff00;stroke-width:1.85357;stroke-dasharray:none" />
      <path
         style="fill:none;fill-opacity:1;stroke:#00ff00;stroke-width:1.85357;stroke-dasharray:none"
         d="m 109.18646,66.401351 a 5.7358256,5.7358256 0 0 1 8.11244,8.109962 h -2.77315"
         id="path5095" />
      <path
         id="polyline5097"
         style="fill:none;fill-opacity:1;stroke:#00ff00;stroke-width:1.85357;stroke-miterlimit:10;stroke-dasharray:none"
         d="m 119.09696,87.414429 h -6.2346 l -7.91792,7.42165" />
      <path
         id="line5099"
         style="fill:none;fill-opacity:1;stroke:#00ff00;stroke-width:1.85357;stroke-miterlimit:10;stroke-dasharray:none"
         d="m 103.87706,85.332074 4.35923,6.182232" />
      <path
         id="line5101"
         style="fill:none;fill-opacity:1;stroke:#00ff00;stroke-width:1.85357;stroke-miterlimit:10;stroke-dasharray:none"
         d="m 108.23629,104.29022 3.00509,-4.15723" />
      <path
         id="polyline5103"
         style="fill:none;fill-opacity:1;stroke:#00ff00;stroke-width:1.85357;stroke-miterlimit:10;stroke-dasharray:none"
         d="m 108.2363,73.072367 2.13223,3.369174 v 4.987675" />
      <path
         id="line5105"
         style="fill:none;fill-opacity:1;stroke:#00ff00;stroke-width:1.85357;stroke-miterlimit:10;stroke-dasharray:none"
         d="M 130.5686,88.661339 H 118.5982" />
      <path
         id="polyline5107"
         style="fill:none;fill-opacity:1;stroke:#00ff00;stroke-width:1.85357;stroke-miterlimit:10;stroke-dasharray:none"
         d="m 119.34635,96.392235 h 5.9852 l 2.99261,5.404145" />
      <path
         id="polyline5109"
         style="fill:none;fill-opacity:1;stroke:#00ff00;stroke-width:1.85357;stroke-miterlimit:10;stroke-dasharray:none"
         d="m 119.34635,81.179832 h 5.9852 l 2.99261,-5.404146" />
      <path
         id="circle5111"
         style="fill:none;fill-opacity:1;stroke:#00ff00;stroke-width:1.85357;stroke-miterlimit:10;stroke-dasharray:none;stroke-opacity:1"
         d="m 139.29704,88.661339 a 3.9901392,3.9901392 0 0 1 -3.99014,3.990137 3.9901392,3.9901392 0 0 1 -3.99013,-3.990137 3.9901392,3.9901392 0 0 1 3.99013,-3.990141 3.9901392,3.9901392 0 0 1 3.99014,3.990141 z" />
      <path
         id="circle5113"
         style="fill:none;fill-opacity:1;stroke:#00ff00;stroke-width:1.85357;stroke-miterlimit:10;stroke-dasharray:none;stroke-opacity:1"
         d="m 133.8106,106.11819 a 3.9901392,3.9901392 0 0 1 -3.99015,3.99015 3.9901392,3.9901392 0 0 1 -3.99013,-3.99015 3.9901392,3.9901392 0 0 1 3.99013,-3.99013 3.9901392,3.9901392 0 0 1 3.99015,3.99013 z" />
      <path
         id="circle5115"
         style="fill:none;fill-opacity:1;stroke:#00ff00;stroke-width:1.85357;stroke-miterlimit:10;stroke-dasharray:none;stroke-opacity:1"
         d="m 133.8106,71.204468 a 3.9901392,3.9901392 0 0 1 -3.99015,3.990139 3.9901392,3.9901392 0 0 1 -3.99013,-3.990139 3.9901392,3.9901392 0 0 1 3.99013,-3.990139 3.9901392,3.9901392 0 0 1 3.99015,3.990139 z" />
      <path
         style="fill:none;fill-opacity:1;stroke:#00ff00;stroke-width:1.85357;stroke-dasharray:none"
         d="m 113.98206,112.57426 c 0,0 7.53337,4.97826 0,19.33076 -1.93223,3.68129 7.84179,2.59148 10.28953,0.18812 2.83664,-2.78524 0,-11.92628 0,-11.92628"
         id="path8926" />
    </g>
    <g
       id="g1453"
       transform="matrix(0.58831575,0,0,0.58831575,35.887033,89.973744)"
       style="opacity:1;stroke:#00ff00;filter:url(#filter1506)">
      <path
         d="M 119.09696,70.456328 A 5.7358256,5.7358256 0 1 0 108.2363,73.032461 4.6011297,4.6011297 0 0 0 105.99185,72.4514 c -2.74322,0 -4.98767,2.45642 -4.98767,5.486438 a 5.7582702,5.7582702 0 0 0 1.44892,3.865448 4.7682167,4.7682167 0 0 0 -1.06235,-0.12468 c -3.167178,0 -5.735833,3.127278 -5.735833,6.982742 0,3.855482 2.568655,6.98276 5.735833,6.98276 a 4.7682167,4.7682167 0 0 0 1.07483,-0.124707 5.7582702,5.7582702 0 0 0 -1.44892,3.865456 c 0,3.030013 2.24445,5.486423 4.98767,5.486423 a 4.6011297,4.6011297 0 0 0 2.24445,-0.58102 5.7358256,5.7358256 0 1 0 10.84819,2.57613 c 0,-0.0855 0,-0.16713 0,-0.24932 v 0 -35.911272 0 c 0,-0.08237 0,-0.164598 0,-0.249388 z"
         fill="none"
         stroke="#220728"
         stroke-linejoin="bevel"
         stroke-width="0.161449"
         id="path1425"
         style="fill:none;fill-opacity:1;stroke:#00ff00;stroke-width:1.85357;stroke-dasharray:none" />
      <path
         d="m 109.43584,110.92133 a 5.7363702,5.7363702 0 0 0 8.11243,-8.11246 h -3.21453"
         fill="none"
         stroke="#220728"
         stroke-miterlimit="10"
         stroke-width="0.161449"
         id="path1427"
         style="fill:none;fill-opacity:1;stroke:#00ff00;stroke-width:1.85357;stroke-dasharray:none" />
      <path
         style="fill:none;fill-opacity:1;stroke:#00ff00;stroke-width:1.85357;stroke-dasharray:none"
         d="m 109.18646,66.401351 a 5.7358256,5.7358256 0 0 1 8.11244,8.109962 h -2.77315"
         id="path1429" />
      <path
         id="path1431"
         style="fill:none;fill-opacity:1;stroke:#00ff00;stroke-width:1.85357;stroke-miterlimit:10;stroke-dasharray:none"
         d="m 119.09696,87.414429 h -6.2346 l -7.91792,7.42165" />
      <path
         id="path1433"
         style="fill:none;fill-opacity:1;stroke:#00ff00;stroke-width:1.85357;stroke-miterlimit:10;stroke-dasharray:none"
         d="m 103.87706,85.332074 4.35923,6.182232" />
      <path
         id="path1435"
         style="fill:none;fill-opacity:1;stroke:#00ff00;stroke-width:1.85357;stroke-miterlimit:10;stroke-dasharray:none"
         d="m 108.23629,104.29022 3.00509,-4.15723" />
      <path
         id="path1437"
         style="fill:none;fill-opacity:1;stroke:#00ff00;stroke-width:1.85357;stroke-miterlimit:10;stroke-dasharray:none"
         d="m 108.2363,73.072367 2.13223,3.369174 v 4.987675" />
      <path
         id="path1439"
         style="fill:none;fill-opacity:1;stroke:#00ff00;stroke-width:1.85357;stroke-miterlimit:10;stroke-dasharray:none"
         d="M 130.5686,88.661339 H 118.5982" />
      <path
         id="path1441"
         style="fill:none;fill-opacity:1;stroke:#00ff00;stroke-width:1.85357;stroke-miterlimit:10;stroke-dasharray:none"
         d="m 119.34635,96.392235 h 5.9852 l 2.99261,5.404145" />
      <path
         id="path1443"
         style="fill:none;fill-opacity:1;stroke:#00ff00;stroke-width:1.85357;stroke-miterlimit:10;stroke-dasharray:none"
         d="m 119.34635,81.179832 h 5.9852 l 2.99261,-5.404146" />
      <path
         id="path1445"
         style="fill:none;fill-opacity:1;stroke:#00ff00;stroke-width:1.85357;stroke-miterlimit:10;stroke-dasharray:none;stroke-opacity:1"
         d="m 139.29704,88.661339 a 3.9901392,3.9901392 0 0 1 -3.99014,3.990137 3.9901392,3.9901392 0 0 1 -3.99013,-3.990137 3.9901392,3.9901392 0 0 1 3.99013,-3.990141 3.9901392,3.9901392 0 0 1 3.99014,3.990141 z" />
      <path
         id="path1447"
         style="fill:none;fill-opacity:1;stroke:#00ff00;stroke-width:1.85357;stroke-miterlimit:10;stroke-dasharray:none;stroke-opacity:1"
         d="m 133.8106,106.11819 a 3.9901392,3.9901392 0 0 1 -3.99015,3.99015 3.9901392,3.9901392 0 0 1 -3.99013,-3.99015 3.9901392,3.9901392 0 0 1 3.99013,-3.99013 3.9901392,3.9901392 0 0 1 3.99015,3.99013 z" />
      <path
         id="path1449"
         style="fill:none;fill-opacity:1;stroke:#00ff00;stroke-width:1.85357;stroke-miterlimit:10;stroke-dasharray:none;stroke-opacity:1"
         d="m 133.8106,71.204468 a 3.9901392,3.9901392 0 0 1 -3.99015,3.990139 3.9901392,3.9901392 0 0 1 -3.99013,-3.990139 3.9901392,3.9901392 0 0 1 3.99013,-3.990139 3.9901392,3.9901392 0 0 1 3.99015,3.990139 z" />
      <path
         style="fill:none;fill-opacity:1;stroke:#00ff00;stroke-width:1.85357;stroke-dasharray:none"
         d="m 113.98206,112.57426 c 0,0 7.53337,4.97826 0,19.33076 -1.93223,3.68129 7.84179,2.59148 10.28953,0.18812 2.83664,-2.78524 0,-11.92628 0,-11.92628"
         id="path1451" />
    </g>
  </g>
</svg>
